<svg width="516" height="516" viewBox="0 0 516 516" fill="none" xmlns="http://www.w3.org/2000/svg">
<g clip-path="url(#clip0_2321_10)">
<path d="M258 513.42C399.065 513.42 513.42 399.065 513.42 258C513.42 116.935 399.065 2.57996 258 2.57996C116.935 2.57996 2.57996 116.935 2.57996 258C2.57996 399.065 116.935 513.42 258 513.42Z" fill="url(#paint0_radial_2321_10)"/>
<path d="M258 5.16C397.836 5.16 510.84 118.164 510.84 258C510.84 397.836 397.836 510.84 258 510.84C118.164 510.84 5.16 397.836 5.16 258C5.16 118.164 118.164 5.16 258 5.16ZM258 0C188.856 0 124.356 26.832 75.852 75.852C27.348 124.872 0 189.372 0 258C0 326.628 26.832 391.644 75.852 440.148C124.872 488.652 189.372 516 258 516C326.628 516 391.644 489.168 440.148 440.148C488.652 391.128 516 326.628 516 258C516 189.372 489.168 124.356 440.148 75.852C391.128 27.348 327.144 0 258 0Z" fill="white"/>
<mask id="mask0_2321_10" style="mask-type:luminance" maskUnits="userSpaceOnUse" x="5" y="5" width="506" height="506">
<path d="M258 510.84C397.64 510.84 510.84 397.64 510.84 258C510.84 118.36 397.64 5.16003 258 5.16003C118.36 5.16003 5.16003 118.36 5.16003 258C5.16003 397.64 118.36 510.84 258 510.84Z" fill="white"/>
</mask>
<g mask="url(#mask0_2321_10)">
<path d="M311.148 291.024C320.552 291.024 328.176 283.4 328.176 273.996C328.176 264.592 320.552 256.968 311.148 256.968C301.744 256.968 294.12 264.592 294.12 273.996C294.12 283.4 301.744 291.024 311.148 291.024Z" fill="url(#paint1_linear_2321_10)"/>
<path d="M242.52 264.192C250.5 264.192 256.968 257.724 256.968 249.744C256.968 241.765 250.5 235.296 242.52 235.296C234.541 235.296 228.072 241.765 228.072 249.744C228.072 257.724 234.541 264.192 242.52 264.192Z" fill="url(#paint2_linear_2321_10)"/>
<path opacity="0.8" d="M239.94 89.2681C246.21 89.2681 251.292 84.1856 251.292 77.9161C251.292 71.6466 246.21 66.5641 239.94 66.5641C233.671 66.5641 228.588 71.6466 228.588 77.9161C228.588 84.1856 233.671 89.2681 239.94 89.2681Z" fill="url(#paint3_linear_2321_10)"/>
<path opacity="0.8" d="M430.86 246.648C435.705 246.648 439.632 242.721 439.632 237.876C439.632 233.031 435.705 229.104 430.86 229.104C426.015 229.104 422.088 233.031 422.088 237.876C422.088 242.721 426.015 246.648 430.86 246.648Z" fill="url(#paint4_linear_2321_10)"/>
<path opacity="0.8" d="M350.364 245.616C389.691 245.616 421.572 213.735 421.572 174.408C421.572 135.081 389.691 103.2 350.364 103.2C311.037 103.2 279.156 135.081 279.156 174.408C279.156 213.735 311.037 245.616 350.364 245.616Z" fill="url(#paint5_linear_2321_10)"/>
<path d="M410.736 175.44H401.964C401.964 146.544 378.228 122.808 349.332 122.808V114.036C383.388 114.036 410.736 141.384 410.736 175.44Z" fill="#EBF7FE"/>
<path opacity="0.8" d="M370.488 313.728C394.996 313.728 414.864 293.86 414.864 269.352C414.864 244.844 394.996 224.976 370.488 224.976C345.98 224.976 326.112 244.844 326.112 269.352C326.112 293.86 345.98 313.728 370.488 313.728Z" fill="url(#paint6_linear_2321_10)"/>
<path d="M406.608 273.996L401.448 273.48C403.512 256.452 391.644 240.456 374.616 238.392L375.132 233.232C395.256 235.812 409.188 254.388 406.608 273.996Z" fill="#EBF7FE"/>
<path opacity="0.8" d="M228.072 196.08C246.026 196.08 260.58 181.526 260.58 163.572C260.58 145.618 246.026 131.064 228.072 131.064C210.118 131.064 195.564 145.618 195.564 163.572C195.564 181.526 210.118 196.08 228.072 196.08Z" fill="url(#paint7_linear_2321_10)"/>
<path d="M254.904 167.184L251.292 166.668C252.84 154.284 244.068 142.416 231.168 140.868L231.684 137.256C246.648 138.804 256.968 152.736 254.904 167.184Z" fill="#EBF7FE"/>
<path d="M444.792 148.608C447.372 144.48 448.92 140.352 448.92 137.772C448.92 135.192 446.34 131.58 441.18 127.968C444.276 130.548 447.888 131.58 450.984 131.58C454.08 131.58 459.756 128.484 462.852 122.808C460.272 127.968 459.24 132.096 459.24 134.676C459.24 137.256 461.82 141.384 466.98 148.092C462.336 143.964 458.208 142.416 455.112 142.416C452.016 142.416 449.436 144.48 444.792 148.608Z" fill="url(#paint8_radial_2321_10)"/>
<path d="M308.568 251.808C311.148 247.68 312.696 243.552 312.696 240.972C312.696 238.392 310.116 234.78 304.956 231.168C308.052 233.748 311.664 234.78 314.76 234.78C317.856 234.78 323.532 231.684 326.628 226.008C324.048 231.168 323.016 235.296 323.016 237.876C323.016 240.456 325.596 244.584 330.756 251.292C326.112 247.164 321.984 245.616 318.888 245.616C315.792 245.616 312.696 247.68 308.568 251.808Z" fill="url(#paint9_radial_2321_10)"/>
<path d="M170.28 126.936C171.828 124.356 172.86 121.776 172.86 120.228C172.86 118.68 171.312 116.616 168.216 114.036C170.28 115.584 172.344 116.1 174.408 116.1C176.472 116.1 179.568 114.036 182.148 110.424C180.6 113.52 179.568 116.1 179.568 117.648C179.568 119.196 181.116 121.776 184.212 125.904C181.116 123.324 179.052 122.292 176.988 122.292C174.924 122.292 173.376 124.356 170.28 126.936Z" fill="url(#paint10_radial_2321_10)"/>
<path d="M292.572 85.6561C295.152 81.5281 296.7 77.4001 296.7 74.8201C296.7 72.2401 294.12 68.6281 288.96 65.0161C292.056 67.5961 295.668 68.6281 298.764 68.6281C301.86 68.6281 307.536 65.5321 310.632 59.8561C308.052 65.0161 307.02 69.1441 307.02 71.7241C307.02 74.3041 309.6 78.4321 314.76 85.1401C310.116 81.0121 305.988 79.4641 302.892 79.4641C299.796 79.4641 297.216 81.5281 292.572 85.6561Z" fill="url(#paint11_radial_2321_10)"/>
<path d="M418.476 271.416C420.024 268.836 421.056 266.256 421.056 264.708C421.056 263.16 419.508 261.096 416.412 258.516C418.476 260.064 420.54 260.58 422.604 260.58C424.668 260.58 427.764 258.516 430.344 254.904C428.796 258 427.764 260.58 427.764 262.128C427.764 263.676 429.312 266.256 432.408 270.384C429.312 267.804 427.248 266.772 425.184 266.772C423.12 266.772 421.056 268.836 418.476 271.416Z" fill="url(#paint12_radial_2321_10)"/>
<path d="M227.556 206.4C229.62 203.304 230.652 200.724 230.652 198.144C230.652 196.08 228.588 193.5 224.976 190.92C227.556 192.468 230.136 193.5 232.2 193.5C234.78 193.5 238.392 191.436 240.972 186.792C238.908 190.92 238.392 193.5 238.392 195.564C238.392 197.628 240.456 200.724 244.068 205.368C240.456 202.272 237.36 201.24 235.296 201.24C232.716 201.756 231.168 203.304 227.556 206.4Z" fill="url(#paint13_radial_2321_10)"/>
<path d="M361.2 358.62C363.264 355.524 364.296 352.428 364.296 350.364C364.296 348.3 362.232 345.72 358.62 342.624C361.2 344.172 363.78 345.204 366.36 345.204C368.94 345.204 373.068 343.14 375.132 338.496C373.068 342.624 372.036 345.72 372.036 347.268C372.036 349.332 374.1 352.428 377.712 357.588C374.1 354.492 371.004 353.46 368.94 353.46C366.876 353.46 364.296 355.008 361.2 358.62Z" fill="black"/>
<path d="M379.26 124.356C380.292 123.324 380.292 121.776 380.292 121.26C380.292 120.228 379.776 119.712 378.228 118.164C379.26 118.68 380.292 119.196 381.324 119.196C382.356 119.196 383.904 118.164 384.936 116.616C384.42 118.164 383.904 119.196 383.904 120.228C383.904 121.26 384.42 122.292 385.968 124.356C384.42 123.324 383.388 122.808 382.356 122.808C381.324 122.808 380.292 123.324 379.26 124.356Z" fill="url(#paint14_radial_2321_10)"/>
<path d="M252.84 273.996L440.664 461.82L204.336 697.632L17.0281 510.324L252.84 273.996Z" fill="url(#paint15_radial_2321_10)"/>
<path d="M63.4682 425.7L62.9521 451.5L87.2041 449.952C98.0401 442.212 109.908 433.44 122.292 424.152C172.86 385.968 231.684 339.012 289.476 337.464L180.084 226.008C176.988 283.8 129 341.592 89.7841 391.128C80.4961 403.512 71.2081 414.864 63.4682 425.7Z" fill="#FAC600"/>
<path d="M100.104 401.448L113.004 414.348C118.68 420.024 127.968 421.056 134.676 415.896C182.148 379.776 236.844 339.528 290.508 337.98L247.68 269.352L180.6 225.492C178.02 279.156 136.74 332.304 99.5881 379.26C93.9121 385.968 94.4281 395.256 100.104 401.448Z" fill="#FED402"/>
<path d="M-90.2998 576.372L-40.7638 527.868L-16.5118 552.636L-47.9878 583.596C-63.4678 598.56 -63.4678 623.844 -47.9878 639.84L-16.5118 672.348C-1.03185 688.344 24.2522 688.86 39.7321 673.896L201.24 514.968C216.72 500.004 216.72 474.72 201.24 458.724L207.432 436.02L229.104 431.376C243.552 445.824 250.776 465.432 250.26 484.008C250.26 503.1 242.52 522.192 228.072 536.64L45.9241 715.176C25.2841 735.3 -8.25584 735.3 -28.3798 714.144L-90.8158 650.676C-110.94 630.036 -110.424 596.496 -90.2998 576.372Z" fill="#FAC600"/>
<path d="M-73.7878 560.376L-24.2518 511.872L0.000167847 536.64L-47.9878 583.596C-63.4678 598.56 -63.4678 623.844 -47.9878 639.84L-16.5118 672.348C-1.03183 688.344 24.2522 688.86 39.7322 673.896L217.752 499.488C233.232 484.524 233.232 459.24 217.752 443.244V435.504L228.588 432.408C243.036 446.856 250.26 466.464 249.744 485.04C249.744 504.132 242.004 523.224 227.556 537.672L62.4362 699.18C41.7962 719.304 8.25617 719.304 -11.8678 698.148L-73.7878 634.68C-94.4278 613.524 -93.9118 580.5 -73.7878 560.376Z" fill="#FED402"/>
<path d="M-110.94 692.988L-135.192 668.22L-100.104 633.648L107.328 430.86C124.356 414.348 146.028 406.092 167.7 406.608C189.372 406.608 211.044 415.38 228.072 432.408L217.236 443.244C197.628 423.12 165.12 422.604 144.996 442.728L-75.8519 658.932L-110.94 692.988Z" fill="#D7D0D6"/>
<path d="M128.484 458.208C148.608 438.6 181.116 438.6 200.724 458.724L217.236 442.728C197.628 422.604 165.12 422.088 144.996 442.212L128.484 458.208Z" fill="#BAAFB9"/>
<path d="M177.504 222.912L293.088 341.076C299.796 347.784 310.632 348.3 317.856 341.076C319.92 339.012 321.468 335.916 322.5 333.336C324.048 327.66 322.5 320.952 318.372 316.308L202.272 198.66C197.628 194.016 191.436 192.468 185.76 194.016C182.664 194.532 180.084 196.08 178.02 198.66C174.408 202.272 172.86 206.4 172.86 211.044C172.344 215.172 173.892 219.816 177.504 222.912Z" fill="#FEDBA6"/>
<path d="M189.888 211.044L305.472 329.208C310.116 333.852 316.308 335.4 321.984 333.852C323.532 328.176 321.984 321.468 317.856 316.824L202.272 198.66C197.628 194.016 191.436 192.468 185.76 194.016C185.244 195.564 185.244 197.112 185.244 198.66C184.728 202.788 186.276 207.432 189.888 211.044Z" fill="#FFEFD2"/>
</g>
</g>
<defs>
<radialGradient id="paint0_radial_2321_10" cx="0" cy="0" r="1" gradientUnits="userSpaceOnUse" gradientTransform="translate(258 258) scale(255.446)">
<stop stop-color="#002155"/>
<stop offset="0.3" stop-color="#001F51"/>
<stop offset="0.6" stop-color="#001C46"/>
<stop offset="0.9" stop-color="#001635"/>
<stop offset="1" stop-color="#00142C"/>
</radialGradient>
<linearGradient id="paint1_linear_2321_10" x1="294.074" y1="271.79" x2="328.134" y2="276.218" gradientUnits="userSpaceOnUse">
<stop stop-color="white"/>
<stop offset="0.1" stop-color="#E6FFEC"/>
<stop offset="0.4" stop-color="#A6FFBD"/>
<stop offset="0.8" stop-color="#41FF72"/>
<stop offset="1" stop-color="#00FF42"/>
</linearGradient>
<linearGradient id="paint2_linear_2321_10" x1="228.368" y1="247.782" x2="256.978" y2="251.529" gradientUnits="userSpaceOnUse">
<stop stop-color="white"/>
<stop offset="0.1" stop-color="#F8E6E6"/>
<stop offset="0.4" stop-color="#E8A6A8"/>
<stop offset="0.8" stop-color="#CF4145"/>
<stop offset="1" stop-color="#BF0005"/>
</linearGradient>
<linearGradient id="paint3_linear_2321_10" x1="228.379" y1="76.3794" x2="251.199" y2="79.2747" gradientUnits="userSpaceOnUse">
<stop stop-color="white"/>
<stop offset="0.1" stop-color="#FFE6FE"/>
<stop offset="0.4" stop-color="#FFA6FC"/>
<stop offset="0.8" stop-color="#FF41FA"/>
<stop offset="1" stop-color="#FF15F9"/>
</linearGradient>
<linearGradient id="paint4_linear_2321_10" x1="422.176" y1="236.81" x2="439.376" y2="239.024" gradientUnits="userSpaceOnUse">
<stop stop-color="white"/>
<stop offset="0.3" stop-color="#C7FFB0"/>
<stop offset="0.6" stop-color="#8CFF5D"/>
<stop offset="0.9" stop-color="#68FF29"/>
<stop offset="1" stop-color="#5AFF15"/>
</linearGradient>
<linearGradient id="paint5_linear_2321_10" x1="278.947" y1="174.214" x2="421.485" y2="174.214" gradientUnits="userSpaceOnUse">
<stop stop-color="white"/>
<stop offset="0.1" stop-color="#F4E6FB"/>
<stop offset="0.4" stop-color="#D9A6F1"/>
<stop offset="0.7" stop-color="#AF41E2"/>
<stop offset="1" stop-color="#006279"/>
</linearGradient>
<linearGradient id="paint6_linear_2321_10" x1="326.489" y1="263.626" x2="414.291" y2="275.184" gradientUnits="userSpaceOnUse">
<stop stop-color="white"/>
<stop offset="0.1" stop-color="#FFE6ED"/>
<stop offset="0.4" stop-color="#FFA6C1"/>
<stop offset="0.8" stop-color="#FF417B"/>
<stop offset="1" stop-color="#FF004E"/>
</linearGradient>
<linearGradient id="paint7_linear_2321_10" x1="195.777" y1="159.391" x2="260.778" y2="167.947" gradientUnits="userSpaceOnUse">
<stop stop-color="white"/>
<stop offset="0.1" stop-color="#E6F6FF"/>
<stop offset="0.4" stop-color="#A6E1FF"/>
<stop offset="0.8" stop-color="#41C0FF"/>
<stop offset="1" stop-color="#00ABFF"/>
</linearGradient>
<radialGradient id="paint8_radial_2321_10" cx="0" cy="0" r="1" gradientUnits="userSpaceOnUse" gradientTransform="translate(454.353 135.727) scale(12.9428)">
<stop stop-color="#EBE075"/>
<stop offset="0.3" stop-color="#D6CF4B"/>
<stop offset="0.5" stop-color="#C5C12A"/>
<stop offset="0.7" stop-color="#B8B713"/>
<stop offset="0.9" stop-color="#B1B104"/>
<stop offset="1" stop-color="#AFAF00"/>
</radialGradient>
<radialGradient id="paint9_radial_2321_10" cx="0" cy="0" r="1" gradientUnits="userSpaceOnUse" gradientTransform="translate(317.775 238.756) scale(12.9428)">
<stop stop-color="#EBE075"/>
<stop offset="0.3" stop-color="#D6CF4B"/>
<stop offset="0.5" stop-color="#C5C12A"/>
<stop offset="0.7" stop-color="#B8B713"/>
<stop offset="0.9" stop-color="#B1B104"/>
<stop offset="1" stop-color="#AFAF00"/>
</radialGradient>
<radialGradient id="paint10_radial_2321_10" cx="0" cy="0" r="1" gradientUnits="userSpaceOnUse" gradientTransform="translate(176.087 118.697) scale(8.0042 8.00419)">
<stop stop-color="#EBE075"/>
<stop offset="0.3" stop-color="#D6CF4B"/>
<stop offset="0.5" stop-color="#C5C12A"/>
<stop offset="0.7" stop-color="#B8B713"/>
<stop offset="0.9" stop-color="#B1B104"/>
<stop offset="1" stop-color="#AFAF00"/>
</radialGradient>
<radialGradient id="paint11_radial_2321_10" cx="0" cy="0" r="1" gradientUnits="userSpaceOnUse" gradientTransform="translate(302.107 72.7169) scale(12.9428)">
<stop stop-color="#EBE075"/>
<stop offset="0.3" stop-color="#D6CF4B"/>
<stop offset="0.5" stop-color="#C5C12A"/>
<stop offset="0.7" stop-color="#B8B713"/>
<stop offset="0.9" stop-color="#B1B104"/>
<stop offset="1" stop-color="#AFAF00"/>
</radialGradient>
<radialGradient id="paint12_radial_2321_10" cx="0" cy="0" r="1" gradientUnits="userSpaceOnUse" gradientTransform="translate(424.04 263.45) scale(8.00421 8.00418)">
<stop stop-color="#EBE075"/>
<stop offset="0.3" stop-color="#D6CF4B"/>
<stop offset="0.5" stop-color="#C5C12A"/>
<stop offset="0.7" stop-color="#B8B713"/>
<stop offset="0.9" stop-color="#B1B104"/>
<stop offset="1" stop-color="#AFAF00"/>
</radialGradient>
<radialGradient id="paint13_radial_2321_10" cx="0" cy="0" r="1" gradientUnits="userSpaceOnUse" gradientTransform="translate(234.669 196.693) scale(9.53671 9.53671)">
<stop stop-color="#EBE075"/>
<stop offset="0.3" stop-color="#D6CF4B"/>
<stop offset="0.5" stop-color="#C5C12A"/>
<stop offset="0.7" stop-color="#B8B713"/>
<stop offset="0.9" stop-color="#B1B104"/>
<stop offset="1" stop-color="#AFAF00"/>
</radialGradient>
<radialGradient id="paint14_radial_2321_10" cx="0" cy="0" r="1" gradientUnits="userSpaceOnUse" gradientTransform="translate(381.806 120.57) scale(3.74668)">
<stop stop-color="#EBE075"/>
<stop offset="0.3" stop-color="#D6CF4B"/>
<stop offset="0.5" stop-color="#C5C12A"/>
<stop offset="0.7" stop-color="#B8B713"/>
<stop offset="0.9" stop-color="#B1B104"/>
<stop offset="1" stop-color="#AFAF00"/>
</radialGradient>
<radialGradient id="paint15_radial_2321_10" cx="0" cy="0" r="1" gradientUnits="userSpaceOnUse" gradientTransform="translate(222.959 488.865) rotate(-9.49955) scale(206.103 206.078)">
<stop stop-color="#000040"/>
<stop offset="0.5" stop-color="#000E31"/>
<stop offset="1" stop-color="#00142C"/>
</radialGradient>
<clipPath id="clip0_2321_10">
<rect width="516" height="516" fill="white"/>
</clipPath>
</defs>
</svg>
